<svg enable-background="new 0 0 403.7 90.8" viewBox="0 0 403.7 90.8"
	xmlns="http://www.w3.org/2000/svg">
	<path d="m0 41c0-.7.6-1.4 1.4-1.4h4.8c.7 0 1.4.6 1.4 1.4v42.3h19.4c.8 0 1.4.6 1.4 1.4v4c0 .7-.6 1.4-1.4 1.4h-25.6c-.8-.1-1.4-.7-1.4-1.4z"/>
	<path d="m173.2 41c0-.7.6-1.4 1.4-1.4h4.8c.8 0 1.4.6 1.4 1.4v29.7c0 7.2 4.6 12.8 12 12.8s12.1-5.5 12.1-12.7v-29.8c0-.7.6-1.4 1.4-1.4h4.8c.7 0 1.4.6 1.4 1.4v30.2c0 10.9-8.3 19.5-19.7 19.5-11.3 0-19.5-8.6-19.5-19.5v-30.2z"/>
	<path d="m269.8 41c0-.7.6-1.4 1.4-1.4h19.6c8.6 0 15.7 6.8 15.7 15.4 0 6.6-4.4 12.1-10.7 14.6l9.9 18.3c.5.9 0 2.1-1.2 2.1h-5.6c-.6 0-1-.4-1.2-.6l-9.6-19.1h-10.9v18.4c0 .7-.6 1.4-1.4 1.4h-4.7c-.8 0-1.4-.6-1.4-1.4v-47.7zm20.4 23.1c4.7 0 8.8-4 8.8-8.9 0-4.7-4.1-8.6-8.8-8.6h-12.8v17.5z"/>
	<path d="m356.5 88.2 22.1-48.5c.2-.4.9-.8 1.2-.8h.7c.4 0 1 .4 1.2.8l22 48.5c.4.9-.1 1.9-1.2 1.9h-4.5c-.9 0-1.4-.4-1.7-1.1l-4.5-9.9h-23.5c-1.4 3.3-3 6.6-4.4 9.9-.2.5-.8 1.1-1.7 1.1h-4.5c-1-.1-1.6-1-1.2-1.9zm32.6-15.3-8.9-19.7h-.4l-8.8 19.7z"/>
	<path d="m80.8 88.4c-1.2 0-2.6 0-3.9 0-.3 0-.6-.4-.9-.5s-.5-.3-.8-.4c0 .1-.1.1-.1.2-.1-.4-.1-.7-.2-1-.1-.2-.2-.6-.3-.6-.3 0-.6.2-.8.3-.2.2-.4.5-.6.8-.1-.2-.1-.4-.2-.5-.5.5-.7 1.5-1.8 1.4-.4-1.4.9-2.4.8-3.8-.5.2-1 .3-1.4.5-2.8 1.3-5.6 2.6-8.3 3.9-.9.4-1.7.7-2.6 1.1-.5.2-.9.6-1.3.8-.5.2-1 .5-1.5.5-2.4.1-4.9.1-7.3.1-.7 0-1.5-.1-2-.8 2.9-.5 5.8-1 8.6-1.5 0-.1 0-.2 0-.3-.8 0-1.7 0-2.5-.1-.4 0-1.2-.3-1.1-.4 0-.7.7-.5 1.1-.6 1.6-.3 3.3-.7 4.9-.8 1.5-.1 2.7-.9 3.8-1.8 1.6-1.3 3.3-2.6 4.9-4 .4-.3.6-.7.8-1.1.5-.8.9-1.7 1.3-2.5-1-.5-1-.6 0-1.5.8-.7 1.7-1.4 2.6-2.1.5-.4 1-.7 1.3-1.3.7-1.4 1.8-2.5 3.5-2.8 1.9-.3 3.3-1.5 4.3-2.8 2.4-3.5 4.7-7.1 6.9-10.7.5-.8.6-1.8.8-2.7.4-1.9 1.1-3.6 2.2-5.2 2-2.7 4.1-5.4 6.7-7.5 3.7-3 9.2-1.6 11.2 2.7.3.7.4 1.4.7 2.1.6 1.4 1.3 2.9 2.1 4.3 1.6 3.2 3.4 6.4 4.9 9.6 1.1 2.3 2.4 4.5 4.1 6.5 2.5 3 4.4 6.3 5.3 10.2.8 3.7 2.1 7.4 4 10.8.4.7.3 1.7.3 2.6 0 .2-.4.6-.7.7-.5.1-1 .2-1.5.2-2.1.1-4.2.2-6.3.2-1.6 0-3.1-.1-4.7-.2-.3 0-.6-.2-.8-.3-.2-.2-.3-.5-.4-.7.2-.1.5-.2.7-.2.8-.2 1.6-.5 2.4-.7 0-.1 0-.2-.1-.3-.7 0-1.4 0-2.1 0-.5 0-1.1 0-1.6-.1-.2 0-.2-.4-.4-.6.2-.1.4-.2.6-.3.6-.2 1.3-.3 1.9-.6 1.3-.7 2.7-1.4 4-2.2 1-.6 1.3-1 .9-2.1-.5-1.4-1-2.8-1.7-4-1.1-1.9-2.4-3.8-3.7-5.6-.4-.6-.8-1.2-1.1-1.8-.7-1.9-2.3-3.1-3.7-4.4-.6-.5-1.2-1.1-1.7-1.7-.8-.8-1.6-1.8-2.5-2.6-2.4-2.2-4.4-4.8-6.1-7.5-.2-.3-.4-.7-.7-1-1.6.6-1.9 1.1-1.8 2.7 0 .4.1.8.1 1.1.2 1.3-.1 2.4-.8 3.5-1.1 1.9-2 3.8-2.9 5.8-.7 1.5-1.4 3-2.9 4-1.1.7-2.3.8-3.5.9-.5 0-1 0-1.5 0-1.5-.2-2.4.6-2.9 1.8-.1.3.1.9.3 1.3.3.5.9.8 1.3 1.2.6.6.4 1.1-.3 1.6-.9.5-1.8 1.1-1.9 2.3 0 .4-.3.7-.8.5-.9-.3-1.8-.4-2.6.4-.4.4-1.2.4-2.1.7.8.7 1.4 1.4 2.1 2.1-.4 0-.8.1-1.3.1.4.5.9 1 1.5 1.7-.8.1-1.5.2-2.3.3.6 1.2 1.2 2.2 2.1 2.7z"/>
	<path d="m41.6 9-5.6-8c-.2-.3 0-.7.4-.7h1.8c.2 0 .3.1.4.2l4.3 6.1 4.3-6.1c.1-.1.2-.2.4-.2h1.8c.4 0 .6.4.4.7l-5.7 8v7.7c0 .2-.2.5-.5.5h-1.6c-.3 0-.5-.2-.5-.5v-7.7z"/>
	<path d="m82.9 0c4.8 0 8.6 3.9 8.6 8.7s-3.8 8.6-8.6 8.6-8.6-3.8-8.6-8.6 3.8-8.7 8.6-8.7zm0 14.9c3.4 0 6.2-2.8 6.2-6.2s-2.8-6.3-6.2-6.3-6.2 2.9-6.2 6.3 2.8 6.2 6.2 6.2z"/>
	<path d="m126.9 0c2.3 0 4.2.8 5.8 2.2.2.2.2.5 0 .7-.4.4-.7.7-1.1 1.1-.2.2-.4.2-.6 0-1.1-1-2.6-1.6-4.1-1.6-3.4 0-6 2.9-6 6.2s2.6 6.2 6 6.2c2 0 3.4-.7 3.6-.8v-2.7h-2.4c-.3 0-.5-.2-.5-.4v-1.4c0-.3.2-.5.5-.5h4.4c.2 0 .4.2.4.5v5.8c0 .1-.1.3-.2.4 0 0-2.5 1.6-6 1.6-4.8 0-8.6-3.8-8.6-8.6.1-4.8 4-8.7 8.8-8.7z"/>
	<path d="m159.2 16.4 7.4-16.2c.1-.1.3-.3.4-.3h.2c.1 0 .3.1.4.3l7.3 16.2c.1.3 0 .6-.4.6h-1.5c-.3 0-.5-.1-.6-.4l-1.5-3.3h-7.8c-.5 1.1-1 2.2-1.5 3.3-.1.2-.3.4-.6.4h-1.5c-.2 0-.4-.3-.3-.6zm10.9-5.1-3-6.6h-.1l-2.9 6.6z"/>
	<path d="m230.3.8c-.1-.3.1-.6.4-.6h1.6c.2 0 .4.2.4.3l2.9 11h.1l3.9-11.3c0-.1.2-.3.4-.3h.4c.2 0 .4.1.4.3l4 11.3h.1l2.9-11c0-.2.2-.3.4-.3h1.6c.3 0 .5.2.4.6l-4.5 16.1c0 .2-.2.3-.4.3h-.4c-.2 0-.4-.1-.4-.3l-4.2-11.9h-.1l-4.2 12c0 .1-.2.3-.4.3h-.4c-.2 0-.4-.1-.4-.3z"/>
	<path d="m277.5.7c0-.2.2-.5.5-.5h1.6c.2 0 .5.2.5.5v15.9c0 .2-.2.5-.5.5h-1.6c-.2 0-.5-.2-.5-.5z"/>
	<path d="m311.2 2.5h-3.9c-.3 0-.5-.2-.5-.5v-1.3c0-.2.2-.5.5-.5h10.3c.3 0 .5.2.5.5v1.3c0 .2-.2.5-.5.5h-3.9v14.1c0 .2-.2.5-.5.5h-1.6c-.2 0-.5-.2-.5-.5v-14.1z"/>
	<path d="m344.9.7c0-.2.2-.5.5-.5h1.6c.3 0 .5.2.5.5v6.7h8.8v-6.7c0-.2.2-.5.5-.5h1.6c.2 0 .5.2.5.5v15.9c0 .2-.2.5-.5.5h-1.6c-.3 0-.5-.2-.5-.5v-7h-8.8v6.9c0 .2-.2.5-.5.5h-1.6c-.2 0-.5-.2-.5-.5z"/>
</svg>
